inDegrees=no
num_controls=7
num_derivatives=13
num_iterations=96
num_multipliers=7
num_parameters=0
num_slacks=7
num_states=26
objective=5.319577
objective_accelerations=0.700506
objective_balance=0.063698
objective_effort=0.500665
objective_height=3.991953
objective_ligament=0.062756
solver_duration=1092.228978
status=Solve_Succeeded
success=true
DataType=double
version=3
OpenSimVersion=4.4-2022-07-23-0e9fedc
endheader
time	/jointset/ground_pelvis/pelvis_tilt/value	/jointset/ground_pelvis/pelvis_tx/value	/jointset/ground_pelvis/pelvis_ty/value	/jointset/hip_l/hip_flexion_l/value	/jointset/hip_l/hip_adduction_l/value	/jointset/hip_l/hip_rotation_l/value	/jointset/back/lumbar_extension/value	/jointset/patellofemoral_l/patellar_flexion_l/value	/jointset/knee_l/knee_flexion_l/value	/jointset/knee_l/knee_adduction_l/value	/jointset/knee_l/knee_rotation_l/value	/jointset/ankle_l/ankle_angle_l/value	/jointset/subtalar_l/subtalar_angle_l/value	/jointset/ground_pelvis/pelvis_tilt/speed	/jointset/ground_pelvis/pelvis_tx/speed	/jointset/ground_pelvis/pelvis_ty/speed	/jointset/hip_l/hip_flexion_l/speed	/jointset/hip_l/hip_adduction_l/speed	/jointset/hip_l/hip_rotation_l/speed	/jointset/back/lumbar_extension/speed	/jointset/patellofemoral_l/patellar_flexion_l/speed	/jointset/knee_l/knee_flexion_l/speed	/jointset/knee_l/knee_adduction_l/speed	/jointset/knee_l/knee_rotation_l/speed	/jointset/ankle_l/ankle_angle_l/speed	/jointset/subtalar_l/subtalar_angle_l/speed	/forceset/tau_hip_flexion_l	/forceset/tau_hip_adduction_l	/forceset/tau_hip_rotation_l	/forceset/tau_knee_flexion_l	/forceset/tau_ankle_angle_l	/forceset/tau_subtalar_angle_l	/forceset/tau_lumbar_extension	lambda_cid13_p0	lambda_cid13_p1	lambda_cid13_p2	lambda_cid13_p3	lambda_cid13_p4	lambda_cid13_p5	lambda_cid14_p0	/jointset/ground_pelvis/pelvis_tilt/accel	/jointset/ground_pelvis/pelvis_tx/accel	/jointset/ground_pelvis/pelvis_ty/accel	/jointset/hip_l/hip_flexion_l/accel	/jointset/hip_l/hip_adduction_l/accel	/jointset/hip_l/hip_rotation_l/accel	/jointset/back/lumbar_extension/accel	/jointset/patellofemoral_l/patellar_flexion_l/accel	/jointset/knee_l/knee_flexion_l/accel	/jointset/knee_l/knee_adduction_l/accel	/jointset/knee_l/knee_rotation_l/accel	/jointset/ankle_l/ankle_angle_l/accel	/jointset/subtalar_l/subtalar_angle_l/accel	gamma_cid13_p0	gamma_cid13_p1	gamma_cid13_p2	gamma_cid13_p3	gamma_cid13_p4	gamma_cid13_p5	gamma_cid14_p0
0.5	-0.2902369999811914	-0.04961861785821212	0.6741402828351949	1.431503036479676	-0.2474500534166209	-0.008904895247193796	-0.3816262817718387	1.21544699627312	1.215446996273072	0.0323014864100603	0.1745317632058582	0.2900448558135529	0.08070396257807856	-0.1490155659918447	-0.0771684797967109	-0.8693807965411607	2.577922483715589	0.06836815255854094	0.4030946635883627	-0.5306669825169311	3.020846412275495	3.020846412275473	0.5132343840343205	0.000334250423057469	0.7471806521068459	0.3007807248504636	-0.2065151653344431	-0.008770250692437991	-0.01050239890397568	-0.3607253975559406	0.1323968488841338	0.02768880250285205	0.2174751421189111	3.946969266992392	-10.33433773913024	-1.475653990608455	-12.47461423678667	-625.0962364601863	-70.28107533066225	-0.4347077408399834	1.703601302421386	1.258458410806202	-0.3098140050672047	-3.11827780286901	-0.2719523976493026	-1.000408171163719	2.908353345753555	-2.952620751468146	-2.952620751468145	-0.589732405019732	-0.147541624081414	-1.818471930078773	-0.4499874061574901	3.699522511176783e-07	-5.652146723499931e-06	-5.145428571851869e-06	-1.105323517738231e-06	-3.155780473816411e-07	-5.585580945828088e-06	1.01530365439335e-07
0.51	-0.29164187323365	-0.05032766342347518	0.6654333501895835	1.457123392194201	-0.246781199855162	-0.004930295165145261	-0.386787528721842	1.245503129892362	1.245503129892322	0.03740812900636464	0.1745327026398057	0.2974238231121771	0.08368673438646283	-0.1319211377428073	-0.06466092304837223	-0.8717686716408157	2.545826556782544	0.06536011423137966	0.391815766629395	-0.5015926663823825	2.989987045477799	2.989987045477835	0.5080666559848669	-7.693479253813071e-05	0.7284968619451722	0.2956430293426719	-0.2119744312769766	-0.008507093460211302	-0.0113077464803404	-0.369540375267769	0.1315852221482151	0.02767265045819465	0.2226470537231048	3.143820844825618	-9.961208365740982	-1.792700298067085	-11.74940846924248	-633.6355276700374	-70.6971898845338	-0.1293972678545614	1.718079584183297	1.243642718406699	-0.1677760546309257	-3.303535783679552	-0.3206690488079184	-1.193104020810971	2.905431912659316	-3.211610520754548	-3.21161052074594	-0.4850351784611545	0.02370142970437125	-1.910929301093565	-0.5637858836184593	3.808804624000169e-07	-4.800240233951316e-06	-4.657087150530833e-06	-1.014912969781672e-06	-2.645857526968939e-07	-5.13824528011049e-06	1.356890875177894e-07
0.52	-0.2928746590040086	-0.05091228573894285	0.6567096384345323	1.482413131510358	-0.2461435145766862	-0.001068778765198774	-0.3916583402774325	1.275238866668261	1.275238866668233	0.04246214588745226	0.174531851904929	0.3046124331608082	0.08661450418766339	-0.114598069572243	-0.05228382983763205	-0.8727366184291087	2.511799204043206	0.06213449596187412	0.3804779271685117	-0.4725799036336846	2.956767043606735	2.956767043606828	0.5027092409932926	-2.378400799645804e-05	0.709109202108219	0.2897803234137304	-0.2174336972195704	-0.008243936227987839	-0.01211309405678042	-0.378355352979602	0.1307735954123022	0.02765649841353504	0.2278189653272369	2.352414922946323	-9.600791347913967	-2.095554764509958	-11.15615946182206	-642.0413608761995	-71.12472434466449	-0.04192491295044456	1.749329286726834	1.232365703286409	-0.0258283427947571	-3.504562964127509	-0.3154683861179375	-1.012196671546547	2.896042668583455	-3.424747766141779	-3.424747766141826	-0.6276697934438225	-0.05467442405450177	-1.959245865134778	-0.5949894903871631	3.641332204955253e-07	-3.527189690727827e-06	-3.703713125570406e-06	-8.620013512894815e-07	-1.83606593553504e-07	-4.163168338336621e-06	1.475635561257966e-07
0.53	-0.2939332819873574	-0.05137389980299347	0.6479832214467457	1.507353520620932	-0.2455383654753834	0.002682086805565305	-0.3962394584063706	1.304631474695318	1.304631474695314	0.04746037785780568	0.1745311414404663	0.3116042636202853	0.08948118097311779	-0.09710857407836043	-0.04007473922523534	-0.8723126353087282	2.475981947057781	0.05888935426457889	0.3697213481279199	-0.443683831251547	2.921389426454908	2.921389426454903	0.4969156720480403	-0.0001065117061950376	0.6891678233491864	0.2834750226176612	-0.2223852075399506	-0.008061875835462142	-0.01306651777350432	-0.3871302343230186	0.1296314799833493	0.02765041275871113	0.2324837046199949	1.463777557898346	-9.23247267211309	-2.394236716693003	-10.30501482201	-650.1227769183926	-71.5451381289557	-0.04200557226926781	1.751470504758037	1.209660965574582	0.1116049979109711	-3.664784295281641	-0.329401239029539	-1.103413691722939	2.880373158538039	-3.649069752123929	-3.649069752138572	-0.5586851604573032	0.01745785794925092	-2.025033582249194	-0.6594732018719013	3.670495142990744e-07	-2.791039180702222e-06	-3.222343581252848e-06	-7.811859123171902e-07	-1.39441701473288e-07	-3.72979060775901e-06	1.688473000318607e-07
0.54	-0.294816467850959	-0.05171452691584823	0.6392680629618543	1.531926841715735	-0.2449657406265521	0.006326181551630334	-0.4005328190843893	1.333659346338373	1.333659346338401	0.05239997719565372	0.1745301096588995	0.3183939903519792	0.09228257018508036	-0.07951064562292093	-0.02808643959845782	-0.8704849178500715	2.438385600891096	0.05562964546751181	0.359123762231015	-0.4150284134490479	2.88381976680625	2.883819766806147	0.4909827144871278	-8.804737829972258e-05	0.6686884565516832	0.2767228087153712	-0.2273367178603996	-0.007879815442972352	-0.01401994149011581	-0.395905115666432	0.1284893645543956	0.0276443271038361	0.2371484439126834	0.5658368597291087	-8.860657631074654	-2.695613051233435	-9.486784518896545	-658.3397462069489	-71.98972986490581	-0.04200142897301012	1.771015879038274	1.188207506162608	0.2549185248604414	-3.860380800379395	-0.3183818060727537	-0.9803980428096772	2.84791175265577	-3.863156265507965	-3.863156265507915	-0.6555475165760434	-0.03443601883471889	-2.066843472828922	-0.6843721116319476	3.917212093115199e-07	-2.648905728682797e-06	-3.263191760199747e-06	-7.801364591967034e-07	-1.360074878459458e-07	-3.895739664036838e-06	2.005413059698174e-07
